# xmcd CD database file
#
# Track frame offsets:
#	150
#	18231
#	37980
#	52699
#	71650
#	87923
#	105466
#	117007
#	137933
#	156630
#	177246
#	194675
#	214892
#	233804
#	248584
#	262104
#	279876
#	302232
#	324259
#
# Disc length: 4549 seconds
#
# Revision: 1
# Processed by: cddbd v1.4PL0 Copyright (c) Steve Scherf et al.
# Submitted via: Feurio! 1.65 - http://www.feurio.com
#
DISCID=0811c313
DTITLE=Various Artist - Now Or Never
DYEAR=1900
DGENRE=Dance
TTITLE0=Angie Stone - Life Storry
TTITLE1=Toni Braxton - He Wasn't Man Enough
TTITLE2=Paula - Als Es Passierte
TTITLE3=Mala Fe - La Vaca
TTITLE4=2 raum Wohnung - WirTrafen uns in einem Garten
TTITLE5=Amarfis and La Banda de Atakke - Mis Chelitos
TTITLE6=Sergio Mendes and Brasil 66 - Mas Que Nada
TTITLE7=Whitney and George Michael - I Told You That
TTITLE8=Kellis  - I Hate You So Much
TTITLE9=Aaliyah - Try Again
TTITLE10=Kellis - Good Stuff
TTITLE11=All Saints - Pure Shores
TTITLE12=Marcy Gray - Do Something
TTITLE13=Mary Mary - Shackless
TTITLE14=Tom Jones and Stereophonics - Mama Told Me Not To Come
TTITLE15=Katharina and The Waves - Walking on Sunshine
TTITLE16=Santana feat. Rob Thomas - Smooth
TTITLE17=Madison Avenue - Don't Call me Baby
TTITLE18=Artful Dodger - Movin' Too Fast
EXTD=
EXTT0=
EXTT1=
EXTT2=
EXTT3=
EXTT4=
EXTT5=
EXTT6=
EXTT7=
EXTT8=
EXTT9=
EXTT10=
EXTT11=
EXTT12=
EXTT13=
EXTT14=
EXTT15=
EXTT16=
EXTT17=
EXTT18=
PLAYORDER=
